<mxfile host="app.diagrams.net" agent="Mozilla/5.0 (Windows NT 10.0; Win64; x64) AppleWebKit/537.36 (KHTML, like Gecko) Chrome/139.0.0.0 Safari/537.36 Edg/139.0.0.0" version="28.1.2">
  <diagram id="45dnjVQlLc_xDQR1wB2p" name="Pagina-1">
    <mxGraphModel dx="1034" dy="578" grid="1" gridSize="10" guides="1" tooltips="1" connect="1" arrows="1" fold="1" page="1" pageScale="1" pageWidth="827" pageHeight="1169" math="0" shadow="0">
      <root>
        <mxCell id="0" />
        <mxCell id="1" parent="0" />
        <mxCell id="Piy6jdMiJryydhk8IpWv-1" value="l1: Therapeutic Plan" style="rounded=0;whiteSpace=wrap;html=1;fillColor=#fad7ac;strokeColor=#b46504;" parent="1" vertex="1">
          <mxGeometry x="310" y="200" width="130" height="60" as="geometry" />
        </mxCell>
        <mxCell id="Piy6jdMiJryydhk8IpWv-2" value="" style="endArrow=classic;html=1;rounded=0;exitX=0;exitY=0;exitDx=85;exitDy=40;exitPerimeter=0;entryX=0.5;entryY=0;entryDx=0;entryDy=0;" parent="1" source="Piy6jdMiJryydhk8IpWv-17" target="Piy6jdMiJryydhk8IpWv-1" edge="1">
          <mxGeometry width="50" height="50" relative="1" as="geometry">
            <mxPoint x="380" y="280" as="sourcePoint" />
            <mxPoint x="430" y="230" as="targetPoint" />
          </mxGeometry>
        </mxCell>
        <mxCell id="Piy6jdMiJryydhk8IpWv-3" value="" style="endArrow=classic;html=1;rounded=0;exitX=0.5;exitY=1;exitDx=0;exitDy=0;entryX=0.5;entryY=0;entryDx=0;entryDy=0;" parent="1" source="Piy6jdMiJryydhk8IpWv-1" edge="1">
          <mxGeometry width="50" height="50" relative="1" as="geometry">
            <mxPoint x="380" y="280" as="sourcePoint" />
            <mxPoint x="375" y="300" as="targetPoint" />
          </mxGeometry>
        </mxCell>
        <mxCell id="Piy6jdMiJryydhk8IpWv-4" value="" style="endArrow=classic;html=1;rounded=0;exitX=0.5;exitY=1;exitDx=0;exitDy=0;entryX=0.5;entryY=0;entryDx=0;entryDy=0;" parent="1" target="Piy6jdMiJryydhk8IpWv-16" edge="1">
          <mxGeometry width="50" height="50" relative="1" as="geometry">
            <mxPoint x="375" y="360" as="sourcePoint" />
            <mxPoint x="374.00125000000025" y="401.8050000000003" as="targetPoint" />
          </mxGeometry>
        </mxCell>
        <mxCell id="Piy6jdMiJryydhk8IpWv-5" value="&amp;lt;&amp;lt;datastore&amp;gt;&amp;gt;&lt;div&gt;l3.1: Therapeutic Plan&lt;/div&gt;" style="rounded=0;whiteSpace=wrap;html=1;fillColor=#fad7ac;strokeColor=#b46504;" parent="1" vertex="1">
          <mxGeometry x="305" y="500" width="140" height="60" as="geometry" />
        </mxCell>
        <mxCell id="Piy6jdMiJryydhk8IpWv-6" value="" style="endArrow=classic;html=1;rounded=0;exitX=0.5;exitY=1;exitDx=0;exitDy=0;entryX=0.5;entryY=0;entryDx=0;entryDy=0;" parent="1" source="Piy6jdMiJryydhk8IpWv-16" target="Piy6jdMiJryydhk8IpWv-5" edge="1">
          <mxGeometry width="50" height="50" relative="1" as="geometry">
            <mxPoint x="380" y="480" as="sourcePoint" />
            <mxPoint x="430" y="430" as="targetPoint" />
          </mxGeometry>
        </mxCell>
        <mxCell id="Piy6jdMiJryydhk8IpWv-7" value="" style="endArrow=classic;html=1;rounded=0;exitX=0.5;exitY=1;exitDx=0;exitDy=0;entryX=0.5;entryY=0;entryDx=0;entryDy=0;" parent="1" source="Piy6jdMiJryydhk8IpWv-5" target="Piy6jdMiJryydhk8IpWv-8" edge="1">
          <mxGeometry width="50" height="50" relative="1" as="geometry">
            <mxPoint x="380" y="480" as="sourcePoint" />
            <mxPoint x="230" y="670" as="targetPoint" />
          </mxGeometry>
        </mxCell>
        <mxCell id="Piy6jdMiJryydhk8IpWv-8" value="" style="shape=sumEllipse;perimeter=ellipsePerimeter;whiteSpace=wrap;html=1;backgroundOutline=1;fillColor=#fad9d5;strokeColor=#ae4132;" parent="1" vertex="1">
          <mxGeometry x="360" y="600" width="30" height="30" as="geometry" />
        </mxCell>
        <mxCell id="Piy6jdMiJryydhk8IpWv-9" value="" style="endArrow=none;dashed=1;html=1;dashPattern=1 3;strokeWidth=2;rounded=0;entryX=1;entryY=0.5;entryDx=0;entryDy=0;entryPerimeter=0;fillColor=#b0e3e6;strokeColor=#0e8088;" parent="1" target="Piy6jdMiJryydhk8IpWv-17" edge="1">
          <mxGeometry width="50" height="50" relative="1" as="geometry">
            <mxPoint x="540" y="460" as="sourcePoint" />
            <mxPoint x="430" y="130" as="targetPoint" />
            <Array as="points">
              <mxPoint x="540" y="300" />
              <mxPoint x="540" y="130" />
            </Array>
          </mxGeometry>
        </mxCell>
        <mxCell id="Piy6jdMiJryydhk8IpWv-10" value="" style="endArrow=none;dashed=1;html=1;dashPattern=1 3;strokeWidth=2;rounded=0;exitX=1;exitY=0.5;exitDx=0;exitDy=0;fillColor=#b0e3e6;strokeColor=#0e8088;" parent="1" source="Piy6jdMiJryydhk8IpWv-5" edge="1">
          <mxGeometry width="50" height="50" relative="1" as="geometry">
            <mxPoint x="630" y="600" as="sourcePoint" />
            <mxPoint x="540" y="460" as="targetPoint" />
            <Array as="points">
              <mxPoint x="540" y="530" />
            </Array>
          </mxGeometry>
        </mxCell>
        <mxCell id="Piy6jdMiJryydhk8IpWv-11" value="&amp;lt;&amp;lt;delay&amp;gt;&amp;gt;&lt;br&gt;30 minutes" style="shape=note;whiteSpace=wrap;html=1;backgroundOutline=1;darkOpacity=0.05;size=15;fillColor=#b0e3e6;strokeColor=#0e8088;" parent="1" vertex="1">
          <mxGeometry x="520" y="240" width="90" height="50" as="geometry" />
        </mxCell>
        <mxCell id="Piy6jdMiJryydhk8IpWv-12" value="&amp;lt;&amp;lt;frequency&amp;gt;&amp;gt;&lt;br&gt;nAttendingPhysician * 2 / hour" style="shape=note;whiteSpace=wrap;html=1;backgroundOutline=1;darkOpacity=0.05;size=15;fillColor=#d5e8d4;strokeColor=#82b366;" parent="1" vertex="1">
          <mxGeometry x="292.5" y="20" width="165" height="50" as="geometry" />
        </mxCell>
        <mxCell id="Piy6jdMiJryydhk8IpWv-13" value="" style="endArrow=none;dashed=1;html=1;dashPattern=1 3;strokeWidth=2;rounded=0;entryX=0.5;entryY=1;entryDx=0;entryDy=0;entryPerimeter=0;exitX=0;exitY=0;exitDx=85;exitDy=0;exitPerimeter=0;fillColor=#d5e8d4;strokeColor=#82b366;" parent="1" source="Piy6jdMiJryydhk8IpWv-17" target="Piy6jdMiJryydhk8IpWv-12" edge="1">
          <mxGeometry width="50" height="50" relative="1" as="geometry">
            <mxPoint x="380" y="280" as="sourcePoint" />
            <mxPoint x="430" y="230" as="targetPoint" />
            <Array as="points">
              <mxPoint x="375" y="70" />
            </Array>
          </mxGeometry>
        </mxCell>
        <mxCell id="Piy6jdMiJryydhk8IpWv-15" value="&amp;lt;&amp;lt;complexity&amp;gt;&amp;gt;&lt;br&gt;medium" style="shape=note;whiteSpace=wrap;html=1;backgroundOutline=1;darkOpacity=0.05;size=15;fillColor=#b1ddf0;strokeColor=#10739e;" parent="1" vertex="1">
          <mxGeometry x="140" y="240" width="120" height="50" as="geometry" />
        </mxCell>
        <mxCell id="Piy6jdMiJryydhk8IpWv-16" value="A3 - Store Therapeutic Plan" style="rounded=1;whiteSpace=wrap;html=1;fillColor=#fad9d5;strokeColor=#ae4132;" parent="1" vertex="1">
          <mxGeometry x="305" y="400" width="140" height="60" as="geometry" />
        </mxCell>
        <mxCell id="Piy6jdMiJryydhk8IpWv-17" value="A1 - Define Therapeutic Plan" style="html=1;shape=mxgraph.infographic.ribbonSimple;notch1=20;notch2=0;align=center;verticalAlign=middle;fontSize=14;fontStyle=0;fillColor=#fad9d5;flipH=0;spacingRight=0;spacingLeft=14;whiteSpace=wrap;strokeColor=#ae4132;" parent="1" vertex="1">
          <mxGeometry x="289.38" y="110" width="180" height="40" as="geometry" />
        </mxCell>
        <mxCell id="Piy6jdMiJryydhk8IpWv-18" value="A2 - Update Sensors Frequencies" style="rounded=1;whiteSpace=wrap;html=1;fillColor=#fad9d5;strokeColor=#ae4132;" parent="1" vertex="1">
          <mxGeometry x="305" y="300" width="140" height="60" as="geometry" />
        </mxCell>
        <mxCell id="RGwk1DWmfyYztJf6kLW8-1" value="" style="strokeWidth=2;html=1;shape=mxgraph.flowchart.start_2;whiteSpace=wrap;fillColor=#f8cecc;strokeColor=#b85450;" vertex="1" parent="1">
          <mxGeometry x="240" y="115" width="30.62" height="30" as="geometry" />
        </mxCell>
        <mxCell id="RGwk1DWmfyYztJf6kLW8-2" value="" style="endArrow=classic;html=1;rounded=0;exitX=1;exitY=0.5;exitDx=0;exitDy=0;exitPerimeter=0;entryX=0;entryY=0;entryDx=20;entryDy=20;entryPerimeter=0;" edge="1" parent="1" source="RGwk1DWmfyYztJf6kLW8-1">
          <mxGeometry width="50" height="50" relative="1" as="geometry">
            <mxPoint x="225.62" y="120" as="sourcePoint" />
            <mxPoint x="310" y="130" as="targetPoint" />
          </mxGeometry>
        </mxCell>
      </root>
    </mxGraphModel>
  </diagram>
</mxfile>
